<mxfile host="app.diagrams.net" modified="2023-11-14T16:28:36.403Z" agent="Mozilla/5.0 (Windows NT 10.0; Win64; x64; rv:109.0) Gecko/20100101 Firefox/119.0" version="22.1.0" etag="vnEXAhYEhHVvGn5QXzsW" type="github">
  <diagram name="Page-1" id="LQUevkdtgTtE3eiO3CXV">
    <mxGraphModel>
      <root>
        <mxCell id="0" />
        <mxCell id="1" parent="0" />
      </root>
    </mxGraphModel>
  </diagram>
</mxfile>
